# xmcd
#
# Track frame offsets:
#	150
#	10660
#	24966
#	35923
#	49111
#	61287
#	73934
#	85177
#	97550
#	110617
#	123847
#	133929
#	143413
#	156618
#	166751
#	179405
#
# Disc length: 2544 seconds
#
# Revision: 3
# Processed by: cddbd v1.5.2PL0 Copyright (c) Steve Scherf et al.
# Submitted via: audiograbber 1.83.01
#
DISCID=d109ee10
DTITLE=Slim Whitman - Best Of Slim Whitman
DYEAR=1998
DGENRE=Country
TTITLE0=Rose Marie
TTITLE1=Indian Love Call
TTITLE2=Keep It A Secret
TTITLE3=Love Song Of The Waterfall
TTITLE4=My Heart Is Broken In Three
TTITLE5=North Wind
TTITLE6=Singing Hills
TTITLE7=More Than Yesterday
TTITLE8=Guess Who
TTITLE9=Something Beautiful To Remember
TTITLE10=The Twelfth Of Never
TTITLE11=I Remember You
TTITLE12=Among My Souvenirs
TTITLE13=It's A Sin To Tell A Lie
TTITLE14=Secret Love
TTITLE15=Rainbows Are back In Style
EXTD=Disky DC 886932 Yodel Country
EXTT0=
EXTT1=
EXTT2=
EXTT3=
EXTT4=
EXTT5=
EXTT6=
EXTT7=
EXTT8=
EXTT9=
EXTT10=
EXTT11=
EXTT12=
EXTT13=
EXTT14=
EXTT15=
PLAYORDER=
